<?xml version="1.0" standalone="no"?>
<!DOCTYPE svg PUBLIC "-//W3C//DTD SVG 20010904//EN"
 "http://www.w3.org/TR/2001/REC-SVG-20010904/DTD/svg10.dtd">
<svg version="1.0" xmlns="http://www.w3.org/2000/svg"
 width="1080.000000pt" height="1080.000000pt" viewBox="0 0 1080.000000 1080.000000"
 preserveAspectRatio="xMidYMid meet">
<metadata>
Created by potrace 1.11, written by Peter Selinger 2001-2013
</metadata>
<g transform="translate(0.000000,1080.000000) scale(0.100000,-0.100000)"
fill="#000000" stroke="none">
<path d="M5158 10756 c-1 -2 -57 -6 -123 -10 -117 -6 -157 -10 -242 -21 -24
-3 -62 -7 -85 -10 -75 -9 -112 -14 -138 -19 -14 -3 -41 -7 -60 -10 -31 -5
-222 -42 -260 -50 -379 -89 -694 -191 -985 -321 -33 -15 -80 -36 -105 -47 -25
-11 -103 -49 -174 -85 -541 -272 -968 -583 -1411 -1028 -71 -72 -151 -155
-177 -185 -25 -30 -59 -68 -73 -85 -62 -69 -217 -268 -290 -369 -309 -435
-533 -869 -709 -1372 -63 -181 -141 -458 -162 -574 -3 -14 -11 -50 -19 -80 -7
-30 -19 -89 -25 -130 -7 -41 -14 -84 -16 -95 -21 -108 -48 -321 -60 -485 -11
-135 -11 -636 0 -760 14 -171 22 -256 31 -320 2 -14 7 -45 10 -70 5 -38 37
-229 50 -295 2 -11 9 -42 15 -70 6 -27 13 -58 15 -69 57 -277 253 -854 359
-1055 8 -14 40 -80 72 -146 138 -288 339 -606 577 -915 82 -106 130 -163 247
-295 89 -99 348 -352 455 -443 61 -52 119 -101 130 -111 11 -9 58 -46 105 -82
47 -35 87 -66 90 -69 25 -28 328 -229 460 -307 148 -87 176 -102 337 -182 445
-221 974 -402 1393 -475 14 -2 52 -9 85 -15 120 -21 160 -27 270 -40 50 -6
108 -13 130 -16 165 -20 747 -28 920 -12 44 5 103 10 130 12 28 3 82 9 120 15
39 5 90 12 115 15 25 3 70 10 100 16 30 5 73 12 95 15 22 3 101 19 175 36 74
17 144 32 155 34 11 1 45 10 75 19 30 9 65 18 77 21 86 18 561 186 688 243 22
10 69 31 105 47 432 193 880 481 1279 822 165 142 406 381 531 527 52 61 102
119 112 130 78 88 257 337 372 516 272 424 507 940 632 1394 14 50 32 115 40
145 9 30 18 66 20 80 3 14 15 70 29 125 13 55 26 120 30 145 3 25 8 52 11 61
2 9 7 34 10 55 2 22 6 46 9 54 4 13 25 185 39 310 27 248 28 901 1 1038 -1 9
-6 49 -10 87 -4 39 -9 77 -10 87 -2 9 -6 38 -10 65 -3 26 -10 71 -15 98 -5 28
-11 64 -14 80 -9 62 -58 293 -77 365 -12 41 -23 85 -25 98 -5 26 -72 249 -81
272 -3 8 -7 17 -8 20 -5 21 -36 107 -82 229 -226 601 -597 1206 -1033 1685
-124 136 -339 345 -475 461 -38 33 -72 62 -75 65 -20 22 -217 173 -318 244
-291 207 -680 427 -967 548 -249 105 -512 198 -710 252 -33 9 -73 21 -90 26
-16 5 -46 12 -65 15 -19 3 -80 17 -135 30 -135 32 -326 65 -460 80 -33 4 -71
8 -85 11 -14 2 -56 6 -95 9 -38 3 -95 8 -125 11 -58 6 -616 14 -622 10z"/>
</g>
</svg>
